<svg width="25" height="24" viewBox="0 0 25 24" fill="none" xmlns="http://www.w3.org/2000/svg">
<path d="M22.8945 7.55002C22.8945 8.21002 22.3545 8.75002 21.6945 8.75002H4.09453C3.43453 8.75002 2.89453 8.21002 2.89453 7.55002V7.54002C2.89453 5.25002 4.74453 3.40002 7.03453 3.40002H18.7445C21.0345 3.40002 22.8945 5.26002 22.8945 7.55002Z" fill="#FFCC79"/>
<path d="M2.89453 11.45V16.46C2.89453 18.75 4.74453 20.6 7.03453 20.6H18.7445C21.0345 20.6 22.8945 18.74 22.8945 16.45V11.45C22.8945 10.79 22.3545 10.25 21.6945 10.25H4.09453C3.43453 10.25 2.89453 10.79 2.89453 11.45ZM8.89453 17.25H6.89453C6.48453 17.25 6.14453 16.91 6.14453 16.5C6.14453 16.09 6.48453 15.75 6.89453 15.75H8.89453C9.30453 15.75 9.64453 16.09 9.64453 16.5C9.64453 16.91 9.30453 17.25 8.89453 17.25ZM15.3945 17.25H11.3945C10.9845 17.25 10.6445 16.91 10.6445 16.5C10.6445 16.09 10.9845 15.75 11.3945 15.75H15.3945C15.8045 15.75 16.1445 16.09 16.1445 16.5C16.1445 16.91 15.8045 17.25 15.3945 17.25Z" fill="#FFCC79"/>
</svg>
