<svg width="25" height="24" viewBox="0 0 25 24" fill="none" xmlns="http://www.w3.org/2000/svg">
<path d="M12.4912 2C6.98121 2 2.49121 6.49 2.49121 12C2.49121 17.51 6.98121 22 12.4912 22C18.0012 22 22.4912 17.51 22.4912 12C22.4912 6.49 18.0012 2 12.4912 2ZM16.8412 15.57C16.7012 15.81 16.4512 15.94 16.1912 15.94C16.0612 15.94 15.9312 15.91 15.8112 15.83L12.7112 13.98C11.9412 13.52 11.3712 12.51 11.3712 11.62V7.52C11.3712 7.11 11.7112 6.77 12.1212 6.77C12.5312 6.77 12.8712 7.11 12.8712 7.52V11.62C12.8712 11.98 13.1712 12.51 13.4812 12.69L16.5812 14.54C16.9412 14.75 17.0612 15.21 16.8412 15.57Z" fill="#FFCC79"/>
</svg>
