<svg width="25" height="24" viewBox="0 0 25 24" fill="none" xmlns="http://www.w3.org/2000/svg">
<path d="M22.1617 10.87L20.6417 9.35001C20.3817 9.09 20.1717 8.58001 20.1717 8.22001V6.06C20.1717 5.18 19.4517 4.46 18.5717 4.46H16.4217C16.0617 4.46 15.5517 4.25 15.2917 3.99L13.7717 2.47C13.1517 1.85 12.1317 1.85 11.5117 2.47L9.97172 3.99C9.72172 4.25 9.21172 4.46 8.84172 4.46H6.69172C5.81172 4.46 5.09172 5.18 5.09172 6.06V8.21C5.09172 8.57 4.88172 9.08 4.62172 9.34L3.10172 10.86C2.48172 11.48 2.48172 12.5 3.10172 13.12L4.62172 14.64C4.88172 14.9 5.09172 15.41 5.09172 15.77V17.92C5.09172 18.8 5.81172 19.52 6.69172 19.52H8.84172C9.20172 19.52 9.71172 19.73 9.97172 19.99L11.4917 21.51C12.1117 22.13 13.1317 22.13 13.7517 21.51L15.2717 19.99C15.5317 19.73 16.0417 19.52 16.4017 19.52H18.5517C19.4317 19.52 20.1517 18.8 20.1517 17.92V15.77C20.1517 15.41 20.3617 14.9 20.6217 14.64L22.1417 13.12C22.7917 12.51 22.7917 11.49 22.1617 10.87ZM8.63172 9C8.63172 8.45 9.08172 8 9.63172 8C10.1817 8 10.6317 8.45 10.6317 9C10.6317 9.55 10.1917 10 9.63172 10C9.08172 10 8.63172 9.55 8.63172 9ZM10.1617 15.53C10.0117 15.68 9.82172 15.75 9.63172 15.75C9.44172 15.75 9.25172 15.68 9.10172 15.53C8.81172 15.24 8.81172 14.76 9.10172 14.47L15.1017 8.47001C15.3917 8.18001 15.8717 8.18001 16.1617 8.47001C16.4517 8.76 16.4517 9.24 16.1617 9.53L10.1617 15.53ZM15.6317 16C15.0717 16 14.6217 15.55 14.6217 15C14.6217 14.45 15.0717 14 15.6217 14C16.1717 14 16.6217 14.45 16.6217 15C16.6217 15.55 16.1817 16 15.6317 16Z" fill="#FFCC79"/>
</svg>
