<svg width="32" height="44" viewBox="0 0 32 44" fill="none" xmlns="http://www.w3.org/2000/svg">
<path d="M0.468196 9.09403C0.0814253 10.0304 0.101782 10.2543 0 15.4656L0.0348075 17.2645C0.0385936 17.4602 0.0890441 17.6521 0.181963 17.8244L0.198723 17.8554C0.255792 17.9612 0.330951 18.0562 0.420792 18.1361L0.571414 18.27C0.623593 18.3163 0.688224 18.3464 0.757313 18.3564C0.846268 18.3693 0.93682 18.3482 1.01089 18.2973L1.92774 17.6669C2.10767 17.5432 2.27445 17.4014 2.42548 17.2437L7.73526 11.6996L9.33195 10.2248C10.0417 9.56925 10.8405 9.01722 11.7047 8.58512C11.9626 8.46977 12.5964 8.22278 13.0686 8.15764C13.5409 8.0925 13.9711 8.07621 14.1271 8.07621L18.1577 7.93372C18.6259 7.92693 19.7577 7.91744 20.5394 7.93372C21.3211 7.95001 21.8422 7.99479 22.005 8.01515L22.4325 8.11693L22.5501 8.16024C22.7289 8.22611 22.8988 8.31392 23.0559 8.42167L23.1476 8.48457C23.3998 8.65749 23.6054 8.89001 23.7462 9.16146C23.7931 9.25206 23.8326 9.34638 23.8641 9.44346L23.9105 9.58659C24.0104 9.8947 24.0692 10.2147 24.0854 10.5382L24.3053 14.9363L24.1112 18.22C24.0779 18.7838 23.9791 19.3419 23.8168 19.8829C23.5476 20.7172 23.1281 21.4953 22.579 22.1787L21.5776 23.4249L17.4859 27.5165L15.4505 30.1884L14.0951 31.9389C14.0279 32.0257 14.0179 32.1439 14.0696 32.2407C14.1177 32.3308 14.2112 32.3874 14.3133 32.3882L16.1628 32.402H19.5012L20.6615 32.2799C21.0415 32.1985 21.9684 31.9908 22.6361 31.8117C23.016 31.7098 23.3085 31.5854 23.5113 31.4784C23.7254 31.3654 23.9196 31.2175 24.1243 31.0882C24.4338 30.8927 24.7186 30.6605 24.9725 30.3968L30.4645 24.6901C30.7137 24.4311 30.931 24.1432 31.1117 23.8324C31.2692 23.5615 31.3979 23.2748 31.4958 22.9771L31.6045 22.6465C31.7592 22.1758 31.8689 21.6915 31.9319 21.2L31.9389 21.145L32 20.6361L31.9389 9.17546C31.9251 8.6445 31.8679 7.58638 31.7404 6.51285C31.624 5.53259 31.2856 4.5959 30.7815 3.74715C30.706 3.61994 30.6262 3.4874 30.5428 3.35085C30.1942 2.78036 29.7502 2.27504 29.2477 1.83417C28.9794 1.59888 28.6952 1.38175 28.3722 1.23017C27.7642 0.944863 26.6676 0.522154 25.0585 0.116894C24.0488 -0.0948121 16.2238 0.028683 12.4376 0.116894L10.5241 0.381526C9.08914 0.787641 7.70422 1.36419 6.59727 2.36352C6.47318 2.47555 6.34353 2.59511 6.20853 2.7225C5.08894 3.80139 1.60815 7.03804 0.468196 9.09403Z" fill="#F9A825"/>
<path d="M19.2415 15.4504C19.3718 14.4082 18.6308 13.6319 18.2441 13.3741C18.1841 13.2642 17.9478 13.1396 17.5927 13.0412C17.2241 12.9391 16.7276 12.8652 16.1677 12.8652C15.2506 12.8652 13.7928 13.6523 13.1754 14.1069L9.36872 17.6082L3.77073 23.2673C3.12611 23.9729 1.61294 25.6978 0.717263 26.9518C-0.178415 28.2057 -0.0494917 30.1206 0.12693 30.9212L0.310155 42.219C0.276228 42.7483 0.29387 43.8394 0.635857 43.9696C0.977843 44.0999 2.35257 42.8568 2.99719 42.219C3.77073 41.4862 5.60687 39.6826 6.76311 38.3309C8.20841 36.6414 7.94378 34.3004 8.04556 32.0408C8.12698 30.2332 9.16516 28.4242 9.67407 27.7456L13.5825 23.8169L17.5927 19.8067C17.8641 19.4471 18.4721 18.5853 18.7326 18.0153C19.0583 17.3029 19.0787 16.7532 19.2415 15.4504Z" fill="#F9A825"/>
</svg>
