<svg width="50" height="69" viewBox="0 0 50 69" fill="none" xmlns="http://www.w3.org/2000/svg">
<path d="M0.731556 14.2094C0.127227 15.6725 0.159034 16.0224 0 24.1649L0.0543868 26.9758C0.0603025 27.2815 0.139132 27.5814 0.284317 27.8506L0.310504 27.8991C0.399675 28.0644 0.51711 28.2128 0.657487 28.3376L0.892835 28.5468C0.974364 28.6193 1.07535 28.6662 1.1833 28.6819C1.32229 28.7021 1.46378 28.6691 1.57951 28.5895L3.0121 27.6045C3.29323 27.4112 3.55383 27.1896 3.78981 26.9432L12.0863 18.2807L14.5812 15.9763C15.6902 14.952 16.9383 14.0894 18.2887 13.4143C18.6915 13.234 19.6818 12.8481 20.4197 12.7463C21.1576 12.6445 21.8298 12.6191 22.0737 12.6191L28.3714 12.3964C29.103 12.3858 30.8714 12.371 32.0928 12.3964C33.3142 12.4219 34.1284 12.4919 34.3829 12.5237L35.0508 12.6827L35.2345 12.7504C35.5139 12.8533 35.7793 12.9905 36.0249 13.1589L36.1682 13.2571C36.5622 13.5273 36.8835 13.8906 37.1034 14.3148C37.1768 14.4563 37.2384 14.6037 37.2876 14.7554L37.3601 14.979C37.5163 15.4605 37.6082 15.9604 37.6334 16.4659L37.977 23.338L37.6737 28.4688C37.6217 29.3498 37.4673 30.2217 37.2137 31.067C36.7931 32.3707 36.1377 33.5864 35.2796 34.6542L33.7149 36.6014L27.3218 42.9945L24.1413 47.1694L22.0236 49.9046C21.9186 50.0402 21.903 50.2248 21.9838 50.3761C22.0589 50.5169 22.205 50.6053 22.3646 50.6065L25.2543 50.6282H30.4707L32.2836 50.4373C32.8774 50.3101 34.3256 49.9857 35.3689 49.7058C35.9625 49.5465 36.4195 49.3522 36.7364 49.185C37.071 49.0085 37.3744 48.7773 37.6942 48.5753C38.1779 48.2698 38.6228 47.9071 39.0195 47.4949L47.6008 38.5783C47.9902 38.1736 48.3297 37.7237 48.612 37.2382C48.8581 36.8148 49.0593 36.3669 49.2122 35.9016L49.382 35.3852C49.6238 34.6497 49.7951 33.8929 49.8936 33.125L49.9046 33.039L50 32.2439L49.9046 14.3366C49.8829 13.507 49.7936 11.8537 49.5943 10.1763C49.4124 8.64467 48.8838 7.18109 48.0961 5.85493C47.9781 5.65616 47.8535 5.44907 47.7231 5.2357C47.1784 4.34431 46.4848 3.55476 45.6995 2.86589C45.2803 2.49825 44.8362 2.15899 44.3315 1.92215C43.3816 1.47635 41.6682 0.815865 39.1539 0.182646C37.5763 -0.148144 25.3498 0.0448171 19.4337 0.182646L16.4439 0.596134C14.2018 1.23069 12.0378 2.13155 10.3082 3.693C10.1143 3.86804 9.91177 4.05486 9.70084 4.25391C7.95146 5.93967 2.51273 10.9969 0.731556 14.2094Z" fill="#FFF0D8"/>
<path d="M30.0649 24.1414C30.2685 22.5129 29.1107 21.3 28.5064 20.8971C28.4127 20.7254 28.0434 20.5308 27.4886 20.377C26.9126 20.2174 26.1369 20.1019 25.2621 20.1019C23.829 20.1019 21.5513 21.3318 20.5865 22.0421L14.6386 27.5129L5.89177 36.3552C4.88454 37.4578 2.52022 40.1529 1.12072 42.1122C-0.278774 44.0715 -0.0773309 47.0635 0.198328 48.3145L0.484618 65.9673C0.431607 66.7943 0.459172 68.4991 0.993526 68.7027C1.52788 68.9062 3.6759 66.9639 4.68311 65.9673C5.89177 64.8222 8.76074 62.0042 10.5674 59.8922C12.8256 57.2522 12.4122 53.5944 12.5712 50.0639C12.6984 47.2395 14.3206 44.4129 15.1157 43.3527L21.2226 37.214L27.4886 30.948C27.9126 30.3861 28.8626 29.0396 29.2697 28.149C29.7786 27.0358 29.8104 26.177 30.0649 24.1414Z" fill="#FFF0D8"/>
</svg>
