<svg width="50" height="50" viewBox="0 0 50 50" fill="none" xmlns="http://www.w3.org/2000/svg">
<path d="M33.7292 4.16663H16.2708C8.68749 4.16663 4.16666 8.68746 4.16666 16.2708V33.7083C4.16666 41.3125 8.68749 45.8333 16.2708 45.8333H33.7083C41.2917 45.8333 45.8125 41.3125 45.8125 33.7291V16.2708C45.8333 8.68746 41.3125 4.16663 33.7292 4.16663ZM30.8125 26.1041L23.4583 33.4583C23.1458 33.7708 22.75 33.9166 22.3542 33.9166C21.9583 33.9166 21.5625 33.7708 21.25 33.4583C20.6458 32.8541 20.6458 31.8541 21.25 31.25L27.5 25L21.25 18.75C20.6458 18.1458 20.6458 17.1458 21.25 16.5416C21.8542 15.9375 22.8542 15.9375 23.4583 16.5416L30.8125 23.8958C31.4375 24.5 31.4375 25.5 30.8125 26.1041Z" fill="#F9A825"/>
</svg>
