<svg width="20" height="19" viewBox="0 0 20 19" fill="none" xmlns="http://www.w3.org/2000/svg">
<path d="M19.4 10.95L16.62 12.34C16.43 12.44 16.2 12.4 16.04 12.25L14.17 10.38C13.97 10.18 13.97 9.87001 14.17 9.67001L16.07 7.76999C16.22 7.61999 16.46 7.57999 16.65 7.67999L19.4 9.06C20.19 9.44 20.19 10.56 19.4 10.95Z" fill="white"/>
<path d="M14.3 6.48999C14.61 6.63999 14.67 7.05001 14.43 7.29001L12.76 8.96L12.05 9.67002C11.85 9.87002 11.54 9.87002 11.34 9.67002L4.2 2.53C3.8 2.13 4.27 1.48001 4.78 1.73001L14.3 6.48999Z" fill="white"/>
<path d="M0 18.15V1.48002C0 1.04002 0.53 0.810005 0.85 1.12001L9.62 9.63002C9.83 9.83002 9.82 10.16 9.61 10.36L0.84 18.52C0.52 18.82 0 18.59 0 18.15Z" fill="white"/>
<path d="M14.27 13.52L4.88001 18.22C4.37001 18.47 3.90001 17.82 4.30001 17.42L11.35 10.37C11.55 10.17 11.86 10.17 12.06 10.37L14.41 12.72C14.64 12.96 14.57 13.37 14.27 13.52Z" fill="white"/>
</svg>
