<svg width="50" height="50" viewBox="0 0 50 50" fill="none" xmlns="http://www.w3.org/2000/svg">
<path d="M33.7292 4.16663H16.2708C8.6875 4.16663 4.16667 8.68746 4.16667 16.2708V33.7083C4.16667 41.3125 8.6875 45.8333 16.2708 45.8333H33.7083C41.2917 45.8333 45.8125 41.3125 45.8125 33.7291V16.2708C45.8333 8.68746 41.3125 4.16663 33.7292 4.16663ZM28.7292 31.25C29.3333 31.8541 29.3333 32.8541 28.7292 33.4583C28.4167 33.7708 28.0208 33.9166 27.625 33.9166C27.2292 33.9166 26.8333 33.7708 26.5208 33.4583L19.1667 26.1041C18.5625 25.5 18.5625 24.5 19.1667 23.8958L26.5208 16.5416C27.125 15.9375 28.125 15.9375 28.7292 16.5416C29.3333 17.1458 29.3333 18.1458 28.7292 18.75L22.4792 25L28.7292 31.25Z" fill="#F9A825"/>
</svg>
