<svg width="21" height="20" viewBox="0 0 21 20" fill="none" xmlns="http://www.w3.org/2000/svg">
<path d="M14.6812 0H6.30121C2.66121 0 0.491211 2.17 0.491211 5.81V14.18C0.491211 17.83 2.66121 20 6.30121 20H14.6712C18.3112 20 20.4812 17.83 20.4812 14.19V5.81C20.4912 2.17 18.3212 0 14.6812 0ZM15.7512 7.96L13.4412 10.94C13.1512 11.31 12.7412 11.55 12.2712 11.6C11.8012 11.66 11.3412 11.53 10.9712 11.24L9.14121 9.8C9.07121 9.74 8.99121 9.74 8.95121 9.75C8.91121 9.75 8.84121 9.77 8.78121 9.85L6.40121 12.94C6.25121 13.13 6.03121 13.23 5.81121 13.23C5.65121 13.23 5.49121 13.18 5.35121 13.07C5.02121 12.82 4.96121 12.35 5.21121 12.02L7.59121 8.93C7.88121 8.56 8.29121 8.32 8.76121 8.26C9.22121 8.2 9.69121 8.33 10.0612 8.62L11.8912 10.06C11.9612 10.12 12.0312 10.12 12.0812 10.11C12.1212 10.11 12.1912 10.09 12.2512 10.01L14.5612 7.03C14.8112 6.7 15.2912 6.64 15.6112 6.9C15.9412 7.17 16.0012 7.64 15.7512 7.96Z" fill="#FFCC79"/>
</svg>
